<svg width="775" height="210" viewBox="0 0 775 210" fill="none" xmlns="http://www.w3.org/2000/svg">
<path d="M109.753 141C107.474 141 105.448 139.993 104.182 138.483L65.9403 97.2041C63.1544 94.1839 63.408 89.4013 66.4468 86.6326C69.4857 83.8639 74.2977 84.1158 77.0836 87.136L110.006 122.626L201.178 32.2652C204.217 29.2449 209.029 29.2449 211.815 32.2652C214.601 35.2854 214.854 40.0679 211.815 42.8367L115.072 138.735C113.805 140.245 111.78 141 109.753 141Z" fill="#267CCC"/>
<path d="M117 205C61.9747 205 17 160.025 17 105C17 49.9752 61.9747 5 117 5C121.272 5 124.538 8.26641 124.538 12.5375C124.538 16.8085 121.271 20.0749 117 20.0749C70.2663 20.0749 32.0754 58.2658 32.0754 105C32.0754 151.734 70.2663 189.925 117 189.925C163.734 189.925 201.925 151.734 201.925 105C201.925 100.728 205.191 97.4623 209.463 97.4623C213.734 97.4623 217 100.729 217 105C217 160.025 172.025 205 117 205Z" fill="#13324F"/>
<path d="M307.24 150.98C300.053 150.98 293.613 149.813 287.92 147.48C282.227 145.147 277.653 141.693 274.2 137.12C270.84 132.547 269.067 127.04 268.88 120.6H294.36C294.733 124.24 295.993 127.04 298.14 129C300.287 130.867 303.087 131.8 306.54 131.8C310.087 131.8 312.887 131.007 314.94 129.42C316.993 127.74 318.02 125.453 318.02 122.56C318.02 120.133 317.18 118.127 315.5 116.54C313.913 114.953 311.907 113.647 309.48 112.62C307.147 111.593 303.787 110.427 299.4 109.12C293.053 107.16 287.873 105.2 283.86 103.24C279.847 101.28 276.393 98.3867 273.5 94.56C270.607 90.7333 269.16 85.74 269.16 79.58C269.16 70.4333 272.473 63.2933 279.1 58.16C285.727 52.9333 294.36 50.32 305 50.32C315.827 50.32 324.553 52.9333 331.18 58.16C337.807 63.2933 341.353 70.48 341.82 79.72H315.92C315.733 76.5467 314.567 74.0733 312.42 72.3C310.273 70.4333 307.52 69.5 304.16 69.5C301.267 69.5 298.933 70.2933 297.16 71.88C295.387 73.3733 294.5 75.5667 294.5 78.46C294.5 81.6333 295.993 84.1067 298.98 85.88C301.967 87.6533 306.633 89.5667 312.98 91.62C319.327 93.7667 324.46 95.82 328.38 97.78C332.393 99.74 335.847 102.587 338.74 106.32C341.633 110.053 343.08 114.86 343.08 120.74C343.08 126.34 341.633 131.427 338.74 136C335.94 140.573 331.833 144.213 326.42 146.92C321.007 149.627 314.613 150.98 307.24 150.98ZM381.753 51.72V150H357.813V51.72H381.753ZM464.342 82.8C462.569 79.5333 460.002 77.06 456.642 75.38C453.375 73.6067 449.502 72.72 445.022 72.72C437.275 72.72 431.069 75.2867 426.402 80.42C421.735 85.46 419.402 92.2267 419.402 100.72C419.402 109.773 421.829 116.867 426.682 122C431.629 127.04 438.395 129.56 446.982 129.56C452.862 129.56 457.809 128.067 461.822 125.08C465.929 122.093 468.915 117.8 470.782 112.2H440.402V94.56H492.482V116.82C490.709 122.793 487.675 128.347 483.382 133.48C479.182 138.613 473.815 142.767 467.282 145.94C460.749 149.113 453.375 150.7 445.162 150.7C435.455 150.7 426.775 148.6 419.122 144.4C411.562 140.107 405.635 134.18 401.342 126.62C397.142 119.06 395.042 110.427 395.042 100.72C395.042 91.0133 397.142 82.38 401.342 74.82C405.635 67.1667 411.562 61.24 419.122 57.04C426.682 52.7467 435.315 50.6 445.022 50.6C456.782 50.6 466.675 53.4467 474.702 59.14C482.822 64.8333 488.189 72.72 490.802 82.8H464.342ZM529.683 70.9V90.78H561.743V109.26H529.683V130.82H565.943V150H505.743V51.72H565.943V70.9H529.683ZM631.605 150L611.165 112.9H605.425V150H581.485V51.72H621.665C629.411 51.72 635.991 53.0733 641.405 55.78C646.911 58.4867 651.018 62.22 653.725 66.98C656.431 71.6467 657.785 76.8733 657.785 82.66C657.785 89.1933 655.918 95.0267 652.185 100.16C648.545 105.293 643.131 108.933 635.945 111.08L658.625 150H631.605ZM605.425 95.96H620.265C624.651 95.96 627.918 94.8867 630.065 92.74C632.305 90.5933 633.425 87.56 633.425 83.64C633.425 79.9067 632.305 76.9667 630.065 74.82C627.918 72.6733 624.651 71.6 620.265 71.6H605.425V95.96ZM696.753 70.9V90.78H728.813V109.26H696.753V130.82H733.013V150H672.813V51.72H733.013V70.9H696.753Z" fill="#13324F"/>
</svg>
